<?xml version="1.0" encoding="UTF-8" standalone="no"?>
<!-- Created with Inkscape (http://www.inkscape.org/) -->

<svg
   width="1024mm"
   height="1024mm"
   viewBox="0 0 1024 1024"
   version="1.1"
   id="svg1"
   inkscape:version="1.3.2 (091e20e, 2023-11-25, custom)"
   sodipodi:docname="wakatime-logo.svg.2024_06_21_15_11_24.0.svg"
   inkscape:export-filename="wakatime-logo.svg"
   inkscape:export-xdpi="96"
   inkscape:export-ydpi="96"
   xmlns:inkscape="http://www.inkscape.org/namespaces/inkscape"
   xmlns:sodipodi="http://sodipodi.sourceforge.net/DTD/sodipodi-0.dtd"
   xmlns="http://www.w3.org/2000/svg"
   xmlns:svg="http://www.w3.org/2000/svg">
  <sodipodi:namedview
     id="namedview1"
     pagecolor="#ffffff"
     bordercolor="#000000"
     borderopacity="0.25"
     inkscape:showpageshadow="2"
     inkscape:pageopacity="0.0"
     inkscape:pagecheckerboard="0"
     inkscape:deskcolor="#d1d1d1"
     inkscape:document-units="mm"
     inkscape:zoom="0.25000001"
     inkscape:cx="411.99999"
     inkscape:cy="2241.9999"
     inkscape:window-width="2560"
     inkscape:window-height="1369"
     inkscape:window-x="-8"
     inkscape:window-y="-8"
     inkscape:window-maximized="1"
     inkscape:current-layer="layer1"
     inkscape:export-bgcolor="#ffffffff" />
  <defs
     id="defs1" />
  <g
     inkscape:label="root"
     inkscape:groupmode="layer"
     id="layer1"
     style="display:inline">
    <rect
       style="display:inline;fill:#ffffff;fill-opacity:1;stroke-width:0.264583"
       id="rect9"
       width="166.15833"
       height="473.07498"
       x="136.52499"
       y="329.14166" />
    <path
       id="rect1"
       style="display:inline;fill:#ffffff;stroke:none;stroke-width:0.264583"
       inkscape:highlight-color="#ffffff"
       d="M 0,0 V 1024 H 1024 V 0 Z m 175.81873,345.67812 c 15.88187,0.4442 33.45085,14.40747 41.28636,44.41797 1.29347,4.95404 2.17331,10.01329 3.4861,14.96032 1.75452,7.15286 3.38123,14.33687 5.12837,21.4912 1.22427,4.50908 2.23923,9.09832 3.59357,13.57075 1.14418,4.17426 2.00774,8.4205 3.12901,12.60078 1.31037,4.73674 2.67344,9.44979 3.78892,14.23995 0.67426,2.82784 1.7839,5.65215 2.27376,8.54315 1.20228,3.93364 2.26064,7.90822 3.46129,11.84269 1.11537,4.59407 2.40763,9.10798 3.65249,13.66118 1.24361,4.78019 2.2438,9.61733 3.66438,14.35003 1.39708,5.2184 3.17526,10.31378 4.67413,15.50086 1.11294,5.32103 2.53927,10.56337 3.75222,15.8595 0.94222,4.7541 1.85785,9.5126 2.86236,14.25391 0.94225,5.14545 1.7984,10.30265 2.78795,15.43937 0.98119,5.5968 1.86885,11.21374 2.6541,16.84186 0.43558,5.02884 1.23441,10.00734 1.87947,15.01046 0.58896,4.73339 0.80067,9.49725 1.27589,14.24047 0.76399,4.57094 1.34204,9.17103 2.0407,13.75317 0.64348,5.97417 1.55968,11.91087 2.30219,17.87281 0.81572,4.0202 0.93708,8.16546 1.88102,12.1574 1.05985,4.63809 1.85149,9.32793 2.75022,13.99759 1.36865,5.35655 2.21565,10.815 2.86081,16.29926 0.75706,4.60853 1.67054,9.18876 2.36213,13.81156 0.93559,4.27862 1.59977,8.60435 2.1177,12.95115 0.41149,4.39283 0.2272,3.03306 0.74104,5.97328 12.20469,69.83649 -58.34212,82.16456 -70.54609,12.32793 -0.58507,-3.34821 -1.14083,-6.70511 -1.33893,-10.10274 -0.37699,-3.60692 -1.25187,-7.12984 -1.82315,-10.70839 -0.77368,-5.399 -2.06553,-10.71097 -2.66598,-16.137 -0.3909,-3.68683 -1.16777,-7.29121 -2.03502,-10.89701 -0.84214,-4.38798 -1.58383,-8.79361 -2.58176,-13.15062 -1.15797,-5.88899 -1.90824,-11.83307 -2.79982,-17.76687 -0.048,-0.39619 -0.10112,-0.79164 -0.15142,-1.18753 -3.6504,-6.54456 -6.60114,-14.55834 -8.42119,-24.22643 -0.11306,-0.60055 -0.22594,-1.20141 -0.339,-1.80195 -0.48086,-2.78147 -0.84917,-5.57807 -1.58646,-8.31009 -0.79157,-3.92789 -1.36409,-7.89483 -2.55954,-11.73313 -1.11323,-4.89358 -2.35824,-9.75714 -3.50056,-14.64407 -0.77572,-3.46365 -1.68491,-6.88347 -2.70164,-10.28413 -1.48564,-4.94535 -3.01583,-9.87854 -4.35374,-14.86679 -1.11189,-4.62607 -2.69897,-9.09928 -4.09432,-13.64413 -1.20378,-4.40459 -2.34982,-8.83233 -3.18172,-13.32477 -2.90851,-15.70655 -1.52932,-28.66787 2.4722,-38.53615 -0.1676,-0.69646 -0.40339,-1.37547 -0.54777,-2.07791 -1.15954,-3.7999 -2.21475,-7.62868 -3.30419,-11.44581 -1.31205,-4.59903 -2.49138,-9.22269 -3.73828,-13.84153 -0.91839,-4.15263 -2.28838,-8.1754 -3.31607,-12.30054 -0.94757,-3.71663 -1.82877,-7.45096 -2.74402,-11.174 -1.46352,-5.32713 -2.88739,-10.66897 -4.23644,-16.02589 -1.69033,-6.98097 -3.30351,-13.98059 -4.99711,-20.961 -1.37558,-5.6075 -2.57266,-11.25611 -3.93774,-16.86667 -9.42758,-38.74799 8.20401,-60.52453 28.62358,-59.95345 z" />
    <path
       id="text1"
       style="font-size:758.077px;font-family:'Black Ops One';-inkscape-font-specification:'Black Ops One, Normal';display:inline;stroke-width:2.03223"
       d="M 123.67322,211.99996 243.97647,812.00004 H 365.49205 L 408.82532,574.62228 356.40113,289.76938 316.09765,541.61552 257.00668,211.99996 Z m 238.48518,0 110.30335,600.00008 H 600.34077 L 497.31036,211.99996 Z" />
    <path
       id="text2"
       style="font-size:935.205px;font-family:'Black Ops One';-inkscape-font-specification:'Black Ops One, Normal';display:inline;stroke-width:2.50708"
       d="M 678.49739,212.00074 535.5304,435.36128 v 291.6349 L 890.64208,212.00074 Z m 53.03604,282.59206 -120.82984,177.69354 69.17718,139.71344 h 220.44601 z" />
  </g>
</svg>
